<svg xmlns="http://www.w3.org/2000/svg" xmlns:xlink="http://www.w3.org/1999/xlink" width="1920" zoomAndPan="magnify" viewBox="0 0 1440 809.999993" height="1080" preserveAspectRatio="xMidYMid meet" version="1.0"><defs><clipPath id="cb9d8320e4"><path d="M 328.191406 13.191406 L 1111.941406 13.191406 L 1111.941406 796.941406 L 328.191406 796.941406 Z M 328.191406 13.191406 " clip-rule="nonzero"/></clipPath></defs><g clip-path="url(#cb9d8320e4)"><path fill="#ff9ea1" d="M 1111.9375 405.0625 C 1111.933594 411.476562 1111.777344 417.886719 1111.464844 424.292969 C 1111.148438 430.699219 1110.675781 437.09375 1110.046875 443.472656 C 1109.417969 449.855469 1108.636719 456.21875 1107.695312 462.5625 C 1106.753906 468.90625 1105.65625 475.222656 1104.40625 481.515625 C 1103.15625 487.804688 1101.75 494.058594 1100.191406 500.28125 C 1098.632812 506.5 1096.921875 512.679688 1095.0625 518.816406 C 1093.199219 524.953125 1091.1875 531.042969 1089.027344 537.082031 C 1086.867188 543.121094 1084.558594 549.101562 1082.105469 555.027344 C 1079.652344 560.953125 1077.054688 566.8125 1074.3125 572.609375 C 1071.570312 578.40625 1068.6875 584.132812 1065.664062 589.789062 C 1062.640625 595.445312 1059.480469 601.023438 1056.183594 606.523438 C 1052.886719 612.027344 1049.457031 617.441406 1045.894531 622.773438 C 1042.332031 628.109375 1038.636719 633.351562 1034.816406 638.5 C 1030.996094 643.652344 1027.054688 648.707031 1022.984375 653.664062 C 1018.917969 658.621094 1014.730469 663.476562 1010.421875 668.226562 C 1006.113281 672.980469 1001.695312 677.625 997.160156 682.160156 C 992.625 686.691406 987.980469 691.113281 983.230469 695.421875 C 978.476562 699.726562 973.621094 703.914062 968.664062 707.984375 C 963.707031 712.050781 958.652344 715.996094 953.5 719.816406 C 948.351562 723.636719 943.109375 727.328125 937.777344 730.890625 C 932.445312 734.457031 927.027344 737.886719 921.527344 741.183594 C 916.027344 744.480469 910.449219 747.640625 904.792969 750.664062 C 899.136719 753.6875 893.410156 756.570312 887.609375 759.3125 C 881.8125 762.050781 875.953125 764.652344 870.027344 767.105469 C 864.101562 769.558594 858.121094 771.867188 852.082031 774.027344 C 846.042969 776.1875 839.957031 778.199219 833.820312 780.058594 C 827.683594 781.921875 821.503906 783.632812 815.28125 785.191406 C 809.0625 786.75 802.804688 788.152344 796.515625 789.40625 C 790.226562 790.65625 783.910156 791.75 777.566406 792.691406 C 771.21875 793.632812 764.859375 794.417969 758.476562 795.046875 C 752.09375 795.675781 745.699219 796.148438 739.292969 796.460938 C 732.886719 796.777344 726.480469 796.933594 720.066406 796.933594 C 713.652344 796.933594 707.242188 796.777344 700.835938 796.460938 C 694.433594 796.148438 688.039062 795.675781 681.65625 795.046875 C 675.273438 794.417969 668.910156 793.632812 662.566406 792.691406 C 656.222656 791.75 649.90625 790.65625 643.613281 789.40625 C 637.324219 788.152344 631.070312 786.75 624.847656 785.191406 C 618.628906 783.632812 612.449219 781.921875 606.3125 780.058594 C 600.175781 778.199219 594.085938 776.1875 588.046875 774.027344 C 582.007812 771.867188 576.027344 769.558594 570.101562 767.105469 C 564.179688 764.652344 558.316406 762.050781 552.519531 759.308594 C 546.722656 756.570312 540.996094 753.6875 535.339844 750.664062 C 529.683594 747.640625 524.105469 744.480469 518.601562 741.183594 C 513.101562 737.886719 507.6875 734.457031 502.355469 730.890625 C 497.019531 727.328125 491.78125 723.636719 486.628906 719.816406 C 481.476562 715.996094 476.421875 712.054688 471.464844 707.984375 C 466.507812 703.914062 461.652344 699.726562 456.902344 695.421875 C 452.148438 691.113281 447.507812 686.691406 442.972656 682.160156 C 438.4375 677.625 434.015625 672.980469 429.707031 668.226562 C 425.402344 663.476562 421.214844 658.621094 417.144531 653.664062 C 413.078125 648.707031 409.132812 643.652344 405.3125 638.5 C 401.492188 633.351562 397.800781 628.109375 394.238281 622.773438 C 390.675781 617.441406 387.242188 612.027344 383.945312 606.523438 C 380.648438 601.023438 377.488281 595.445312 374.464844 589.789062 C 371.445312 584.132812 368.5625 578.40625 365.820312 572.609375 C 363.078125 566.8125 360.480469 560.953125 358.023438 555.027344 C 355.570312 549.101562 353.261719 543.121094 351.101562 537.082031 C 348.941406 531.042969 346.929688 524.953125 345.070312 518.816406 C 343.207031 512.679688 341.496094 506.5 339.9375 500.28125 C 338.378906 494.058594 336.976562 487.804688 335.726562 481.515625 C 334.472656 475.222656 333.378906 468.90625 332.4375 462.5625 C 331.496094 456.21875 330.710938 449.855469 330.082031 443.472656 C 329.453125 437.09375 328.980469 430.699219 328.667969 424.292969 C 328.351562 417.886719 328.195312 411.476562 328.195312 405.0625 C 328.195312 398.652344 328.351562 392.242188 328.667969 385.835938 C 328.980469 379.429688 329.453125 373.035156 330.082031 366.65625 C 330.710938 360.273438 331.496094 353.910156 332.4375 347.566406 C 333.378906 341.222656 334.472656 334.902344 335.726562 328.613281 C 336.976562 322.324219 338.382812 316.070312 339.9375 309.847656 C 341.496094 303.625 343.207031 297.449219 345.070312 291.3125 C 346.929688 285.171875 348.941406 279.085938 351.101562 273.046875 C 353.261719 267.007812 355.570312 261.027344 358.023438 255.101562 C 360.480469 249.175781 363.078125 243.316406 365.820312 237.519531 C 368.5625 231.722656 371.445312 225.992188 374.46875 220.339844 C 377.488281 214.683594 380.648438 209.105469 383.945312 203.601562 C 387.242188 198.101562 390.675781 192.683594 394.238281 187.351562 C 397.800781 182.019531 401.492188 176.777344 405.3125 171.628906 C 409.132812 166.476562 413.078125 161.421875 417.144531 156.464844 C 421.214844 151.507812 425.402344 146.652344 429.707031 141.902344 C 434.015625 137.148438 438.4375 132.503906 442.972656 127.96875 C 447.507812 123.4375 452.148438 119.015625 456.902344 114.707031 C 461.652344 110.402344 466.507812 106.214844 471.464844 102.144531 C 476.421875 98.074219 481.476562 94.132812 486.628906 90.3125 C 491.78125 86.492188 497.019531 82.800781 502.355469 79.234375 C 507.6875 75.671875 513.101562 72.242188 518.605469 68.945312 C 524.105469 65.648438 529.683594 62.488281 535.339844 59.464844 C 540.996094 56.441406 546.722656 53.558594 552.519531 50.816406 C 558.316406 48.074219 564.179688 45.476562 570.101562 43.023438 C 576.027344 40.570312 582.011719 38.261719 588.046875 36.101562 C 594.085938 33.941406 600.175781 31.929688 606.3125 30.066406 C 612.449219 28.207031 618.628906 26.496094 624.847656 24.9375 C 631.070312 23.378906 637.324219 21.976562 643.617188 20.722656 C 649.90625 19.472656 656.222656 18.375 662.566406 17.4375 C 668.910156 16.496094 675.273438 15.710938 681.65625 15.082031 C 688.039062 14.453125 694.433594 13.980469 700.835938 13.667969 C 707.242188 13.351562 713.652344 13.195312 720.066406 13.195312 C 726.480469 13.195312 732.886719 13.351562 739.292969 13.667969 C 745.699219 13.980469 752.09375 14.453125 758.476562 15.082031 C 764.859375 15.710938 771.222656 16.496094 777.566406 17.4375 C 783.910156 18.375 790.226562 19.472656 796.515625 20.722656 C 802.804688 21.976562 809.0625 23.378906 815.28125 24.9375 C 821.503906 26.496094 827.683594 28.207031 833.820312 30.066406 C 839.957031 31.929688 846.042969 33.941406 852.082031 36.101562 C 858.121094 38.261719 864.101562 40.570312 870.027344 43.023438 C 875.953125 45.476562 881.8125 48.074219 887.609375 50.816406 C 893.410156 53.558594 899.136719 56.441406 904.792969 59.464844 C 910.449219 62.488281 916.027344 65.648438 921.527344 68.945312 C 927.027344 72.242188 932.445312 75.671875 937.777344 79.234375 C 943.109375 82.800781 948.351562 86.492188 953.503906 90.3125 C 958.652344 94.132812 963.707031 98.074219 968.664062 102.144531 C 973.621094 106.214844 978.476562 110.402344 983.230469 114.707031 C 987.980469 119.015625 992.625 123.433594 997.160156 127.96875 C 1001.695312 132.503906 1006.113281 137.148438 1010.421875 141.902344 C 1014.730469 146.652344 1018.917969 151.507812 1022.984375 156.464844 C 1027.054688 161.421875 1030.996094 166.476562 1034.816406 171.628906 C 1038.636719 176.777344 1042.332031 182.019531 1045.894531 187.351562 C 1049.457031 192.683594 1052.886719 198.101562 1056.183594 203.601562 C 1059.480469 209.105469 1062.640625 214.683594 1065.664062 220.335938 C 1068.6875 225.992188 1071.570312 231.71875 1074.3125 237.519531 C 1077.054688 243.316406 1079.652344 249.175781 1082.105469 255.101562 C 1084.558594 261.027344 1086.867188 267.007812 1089.027344 273.046875 C 1091.1875 279.085938 1093.199219 285.171875 1095.0625 291.308594 C 1096.921875 297.445312 1098.632812 303.625 1100.191406 309.847656 C 1101.75 316.066406 1103.15625 322.324219 1104.40625 328.613281 C 1105.65625 334.902344 1106.753906 341.222656 1107.695312 347.566406 C 1108.636719 353.910156 1109.417969 360.273438 1110.046875 366.65625 C 1110.675781 373.035156 1111.148438 379.429688 1111.464844 385.835938 C 1111.777344 392.242188 1111.933594 398.652344 1111.9375 405.0625 Z M 1111.9375 405.0625 " fill-opacity="1" fill-rule="nonzero"/></g><path fill="#2d0607" d="M 680.679688 178.269531 C 671.832031 188.953125 667.410156 203.929688 667.410156 223.207031 C 667.410156 237.375 668.332031 260.714844 670.183594 293.230469 L 680.0625 460.09375 C 681.914062 481.691406 685 497.832031 689.320312 508.515625 C 701.140625 530.28125 738.324219 529.242188 748.03125 507.820312 C 752.761719 496.902344 755.847656 481.226562 757.289062 460.789062 L 770.558594 289.050781 C 772 273.257812 772.71875 257.695312 772.71875 242.367188 C 772.71875 216.355469 769.734375 196.5 763.769531 182.796875 C 747.464844 155.324219 700.074219 155.597656 680.679688 178.269531 Z M 680.679688 562.21875 C 669.46875 572.753906 667.429688 585.828125 667.410156 598.796875 C 667.378906 612.492188 670.074219 629.613281 681.296875 637.464844 C 702.46875 652.289062 737.703125 652.003906 758.832031 637.117188 C 769.9375 629.292969 772.824219 612.382812 772.71875 598.796875 C 772.621094 585.753906 769.566406 569.625 758.832031 562.21875 C 737.386719 547.425781 699.101562 543.800781 680.679688 562.21875 Z M 680.679688 562.21875 " fill-opacity="1" fill-rule="nonzero"/></svg>