<svg xmlns="http://www.w3.org/2000/svg" xmlns:xlink="http://www.w3.org/1999/xlink" width="1920" zoomAndPan="magnify" viewBox="0 0 1440 809.999993" height="1080" preserveAspectRatio="xMidYMid meet" version="1.0"><defs><clipPath id="4c7a0b6a73"><path d="M 476 22.601562 L 1039 22.601562 L 1039 494 L 476 494 Z M 476 22.601562 " clip-rule="nonzero"/></clipPath><clipPath id="cdff2556c6"><path d="M 305.476562 266 L 1134.226562 266 L 1134.226562 787.601562 L 305.476562 787.601562 Z M 305.476562 266 " clip-rule="nonzero"/></clipPath></defs><g clip-path="url(#4c7a0b6a73)"><path fill="#825417" d="M 653.753906 70.648438 C 690.558594 82.5625 712.804688 105.640625 747.972656 142.121094 C 776.183594 171.390625 799.207031 203.488281 833.257812 250.960938 C 869.925781 302.089844 879.507812 319.769531 891.734375 317.566406 C 909.789062 314.316406 921.03125 269.972656 916.914062 233.097656 C 912.28125 191.5625 888.59375 163.265625 854.375 123.449219 C 835.308594 101.265625 806.175781 71.054688 765.027344 40.601562 C 798.328125 55.40625 843.597656 81.394531 884.429688 126.695312 C 948.882812 198.191406 962.707031 273.882812 965.65625 292.386719 C 971.5 329.125 981.179688 389.980469 946.15625 418.28125 C 919.535156 439.800781 881.390625 430.917969 879.558594 430.46875 C 833.40625 419.03125 827.976562 374.25 769.90625 300.503906 C 738.5625 260.703125 702.707031 215.164062 645.636719 191.671875 C 593.253906 170.105469 542.667969 175.195312 512.429688 181.109375 C 537.605469 184.414062 575.089844 192.195312 615.585938 212.785156 C 684.226562 247.6875 724.402344 300.535156 743.101562 325.683594 C 795.171875 395.683594 787.355469 427.914062 838.132812 463.761719 C 854.960938 475.644531 886.964844 497.554688 926.667969 492.191406 C 976.734375 485.425781 1005.167969 439.871094 1013.578125 426.402344 C 1044.988281 376.082031 1039.945312 323.128906 1034.695312 268.019531 C 1031.445312 233.867188 1022.742188 182.898438 997.277344 124.285156 C 923.953125 60.980469 828.421875 22.699219 723.949219 22.699219 C 631.15625 22.699219 545.425781 52.894531 476.035156 104.007812 C 485.113281 98.75 494.800781 93.808594 505.121094 89.324219 C 536.449219 75.703125 593.167969 51.035156 653.753906 70.648438 Z M 653.753906 70.648438 " fill-opacity="1" fill-rule="nonzero"/></g><path fill="#825417" d="M 449.046875 267.671875 C 534.867188 283.742188 591.195312 333.539062 622.339844 361.789062 C 699.074219 431.367188 682.769531 464.214844 753.796875 520.140625 C 786.742188 546.0625 849.925781 595.808594 928.589844 584.382812 C 1008.191406 572.808594 1053.832031 505.859375 1067.519531 485.78125 C 1129.742188 394.507812 1110.125 292.171875 1103.992188 265.785156 C 1103.992188 265.78125 1103.992188 265.777344 1103.992188 265.777344 C 1081.054688 216.144531 1048.667969 171.765625 1009.148438 134.949219 C 1037.582031 172.667969 1081.664062 246.132812 1077.734375 341.121094 C 1076.179688 378.640625 1072.980469 456.039062 1011.945312 506.816406 C 1006.945312 510.980469 948.339844 558.195312 873.863281 544.992188 C 829.867188 537.1875 802.613281 512.246094 768.277344 480.828125 C 709.316406 426.867188 713.417969 400.675781 648.875 328.9375 C 616.207031 292.625 587.300781 260.492188 540.851562 235.535156 C 480.003906 202.828125 419.800781 198.945312 381.714844 200.277344 C 367.035156 221.097656 354.203125 243.316406 343.464844 266.6875 C 372.207031 262.019531 408.566406 260.089844 449.046875 267.671875 Z M 449.046875 267.671875 " fill-opacity="1" fill-rule="nonzero"/><g clip-path="url(#cdff2556c6)"><path fill="#825417" d="M 1104.527344 266.941406 C 1113.085938 295.578125 1124.269531 348 1111.964844 410.855469 C 1106.523438 438.65625 1087.964844 525.46875 1006.648438 584.53125 C 913.0625 652.503906 804.644531 629.511719 789.28125 625.988281 C 745.324219 615.929688 715.082031 596.929688 696.28125 584.902344 C 603.011719 525.214844 596.332031 457.996094 538.675781 416.089844 C 499.253906 387.445312 431.589844 367.429688 307.242188 402.359375 C 306.066406 415.144531 305.464844 428.089844 305.464844 441.179688 C 305.464844 451.046875 305.800781 460.839844 306.476562 470.539062 C 327.800781 458.796875 360.140625 444.945312 401.230469 440.742188 C 417.941406 439.035156 457.792969 434.957031 497.589844 450.457031 C 556.546875 473.40625 564.609375 519.53125 611.878906 570.71875 C 667.847656 631.3125 750.050781 668.53125 822.519531 673.792969 C 952.449219 683.246094 1045.476562 599.164062 1064.53125 581.175781 C 1039.820312 614.710938 996.371094 665.035156 928.585938 708.152344 C 855.152344 754.875 785.632812 772.503906 743.332031 779.867188 C 772.722656 786.296875 820.847656 792.730469 876.296875 779.867188 C 1030.425781 744.105469 1097.054688 597.746094 1104.871094 579.675781 C 1127.578125 527.175781 1131.425781 481.5 1133.316406 456.574219 C 1139.726562 372.199219 1119.25 304.730469 1104.527344 266.941406 Z M 1104.527344 266.941406 " fill-opacity="1" fill-rule="nonzero"/></g></svg>